<svg xmlns="http://www.w3.org/2000/svg" width="43.204" height="52.536" viewBox="0 0 43.204 52.536">
  <path id="Path_7569" data-name="Path 7569" d="M-404.45,90.826h-.005c-6-.082-10.845-1.034-14.387-2.83a12.43,12.43,0,0,1-6.419-6.873A14.836,14.836,0,0,1-425.8,73.8a27.7,27.7,0,0,1,2.536-7.781,43.174,43.174,0,0,1,8.98-12.192,2.557,2.557,0,0,1-.586-1.631,2.572,2.572,0,0,1,1.549-2.358,29.153,29.153,0,0,1-2.174-3.445c-1.353-2.548-1.769-4.44-1.239-5.625.4-.885,1.3-1.334,2.68-1.334a8.406,8.406,0,0,1,1.087.077l.016,0c.035.007.092.024.264.076a30.269,30.269,0,0,0,8.614,1.482h0A10.862,10.862,0,0,0-400,40.4a11.572,11.572,0,0,1,4.238-1.108,2.345,2.345,0,0,1,2.387,1.319c.652,1.478-.089,3.793-.825,5.474a22.714,22.714,0,0,1-2.158,3.839,2.571,2.571,0,0,1,1.371,2.272,2.562,2.562,0,0,1-.81,1.87,58.266,58.266,0,0,1,5.689,6.509,37.674,37.674,0,0,1,4.392,7.441c2.074,4.8,2.432,9.273,1.035,12.924a13.25,13.25,0,0,1-6.626,7.018c-3.4,1.76-7.822,2.725-13.142,2.869ZM-423.386,79.95c1.557,4.793,6.547,7.673,14.83,8.559,5.629.431,10.4-.086,14.183-1.538,3.575-1.373,6.133-3.591,7.4-6.414,1.4-3.137,1.229-7.033-.5-11.268-1.867-4.572-5.417-9.392-10.552-14.332l-1.6-.005c.456.794.891,1.715.583,2.326a1.107,1.107,0,0,1-.958.546.75.75,0,0,1-.11.007c-.814,0-1.345-1.269-1.774-2.29-.1-.238-.186-.445-.262-.6l-5.7-.019a1.232,1.232,0,0,1-.05.119c-.062.13-.15.36-.251.626-.555,1.458-1.121,2.767-1.93,2.767a.746.746,0,0,1-.1-.007,1.052,1.052,0,0,1-.905-.5c-.377-.69.247-1.86.748-2.8l.115-.218-1.974-.007C-418.416,60.567-425.963,72.022-423.386,79.95Zm25.834-27.2a.556.556,0,0,0,.555-.555.556.556,0,0,0-.555-.555h-14.753a.556.556,0,0,0-.555.555.557.557,0,0,0,.416.538l5.23.018Zm-1.367-3.124.06-.089c.89-1.328,2-2.982,2.8-4.479,1.116-2.089,1.126-2.948.938-3.3-.044-.082-.178-.334-.789-.334a9.015,9.015,0,0,0-3.227.977l-.019.008a14.61,14.61,0,0,1-4.991.806,32.464,32.464,0,0,1-6.893-.932A17.017,17.017,0,0,0-414,41.793c-.652,0-.757.2-.791.269-.457.884,1.915,4.468,4.095,7.564Zm-11.415,28.957-.506-1.656a7.062,7.062,0,0,0,1.517-2.058,6.222,6.222,0,0,0,.483-2.611,4.86,4.86,0,0,0-.046-.528h-2.553V69.521h1.909a10.144,10.144,0,0,1-.46-2.829,5.186,5.186,0,0,1,.679-2.7,4.432,4.432,0,0,1,1.9-1.736,6.292,6.292,0,0,1,2.805-.6,5.128,5.128,0,0,1,3.9,1.415,5.294,5.294,0,0,1,1.415,3.623h-2.967a2.64,2.64,0,0,0-.575-1.737,2.174,2.174,0,0,0-1.725-.632,2.29,2.29,0,0,0-1.713.644,2.723,2.723,0,0,0-.633,1.978,5.639,5.639,0,0,0,.126,1.184q.127.587.38,1.391h4.324v2.209h-3.749a4.88,4.88,0,0,1,.046.552,5.4,5.4,0,0,1-.38,1.966,5.063,5.063,0,0,1-1.161,1.76h8.141v2.576Z" transform="translate(426.522 -38.79)" fill="#0a1a4a" stroke="rgba(0,0,0,0)" stroke-width="1"/>
</svg>
