<svg id="Group_70" data-name="Group 70" xmlns="http://www.w3.org/2000/svg" xmlns:xlink="http://www.w3.org/1999/xlink" width="122.637" height="101.606" viewBox="0 0 122.637 101.606">
  <defs>
    <clipPath id="clip-path">
      <rect id="Rectangle_12" data-name="Rectangle 12" width="122.637" height="101.606" fill="none"/>
    </clipPath>
  </defs>
  <g id="Group_69" data-name="Group 69" clip-path="url(#clip-path)">
    <path id="Path_12" data-name="Path 12" d="M115.281,101.606H7.356A7.415,7.415,0,0,1,0,94.151V31.166H3V94.151a4.412,4.412,0,0,0,4.356,4.455H115.281a4.412,4.412,0,0,0,4.356-4.455V31.166h3V94.151a7.415,7.415,0,0,1-7.356,7.455" fill="#0a1a4a"/>
    <path id="Path_13" data-name="Path 13" d="M27.1,21.626a7.052,7.052,0,0,1-7.044-7.044,6.9,6.9,0,0,1,.558-2.709,1.5,1.5,0,1,1,2.761,1.172,3.917,3.917,0,0,0-.319,1.537,4.044,4.044,0,0,0,8.088,0,3.917,3.917,0,0,0-.319-1.537,1.5,1.5,0,1,1,2.761-1.172,6.9,6.9,0,0,1,.558,2.709A7.052,7.052,0,0,1,27.1,21.626" fill="#0a1a4a"/>
    <path id="Path_14" data-name="Path 14" d="M27.1,15.984a1.5,1.5,0,0,1-1.5-1.5V1.5a1.5,1.5,0,0,1,3,0V14.484a1.5,1.5,0,0,1-1.5,1.5" fill="#0a1a4a"/>
    <path id="Path_15" data-name="Path 15" d="M95.54,21.626A7.052,7.052,0,0,1,88.5,14.582a6.9,6.9,0,0,1,.558-2.709,1.5,1.5,0,1,1,2.761,1.172,3.92,3.92,0,0,0-.319,1.537,4.044,4.044,0,1,0,8.088,0,3.908,3.908,0,0,0-.319-1.536,1.5,1.5,0,0,1,2.76-1.174,6.882,6.882,0,0,1,.559,2.71,7.052,7.052,0,0,1-7.044,7.044" fill="#0a1a4a"/>
    <path id="Path_16" data-name="Path 16" d="M95.54,15.984a1.5,1.5,0,0,1-1.5-1.5V1.5a1.5,1.5,0,0,1,3,0V14.484a1.5,1.5,0,0,1-1.5,1.5" fill="#0a1a4a"/>
    <path id="Path_17" data-name="Path 17" d="M89.412,6.6H33.224a1.5,1.5,0,0,1,0-3H89.412a1.5,1.5,0,0,1,0,3" fill="#0a1a4a"/>
    <path id="Path_18" data-name="Path 18" d="M122.637,32.666H0V10.954A7.364,7.364,0,0,1,7.356,3.6H20.969a1.5,1.5,0,0,1,0,3H7.356A4.361,4.361,0,0,0,3,10.954V29.666H119.637V10.954A4.361,4.361,0,0,0,115.281,6.6H101.668a1.5,1.5,0,1,1,0-3h13.613a7.364,7.364,0,0,1,7.356,7.355Z" fill="#0a1a4a"/>
    <path id="Path_19" data-name="Path 19" d="M112.076,51.959H11.6a1.5,1.5,0,1,1,0-3H112.076a1.5,1.5,0,0,1,0,3" fill="#0a1a4a"/>
    <path id="Path_20" data-name="Path 20" d="M81.951,16.527H40.685a1.5,1.5,0,0,1,0-3H81.951a1.5,1.5,0,0,1,0,3" fill="#0a1a4a"/>
    <path id="Path_21" data-name="Path 21" d="M111.8,67.319H11.882a1.5,1.5,0,0,1,0-3H111.8a1.5,1.5,0,0,1,0,3" fill="#0a1a4a"/>
    <path id="Path_22" data-name="Path 22" d="M20.539,92.194a1.5,1.5,0,0,1-1.5-1.5V40.459a1.5,1.5,0,0,1,3,0V90.694a1.5,1.5,0,0,1-1.5,1.5" fill="#0a1a4a"/>
    <path id="Path_23" data-name="Path 23" d="M41.01,92.194a1.5,1.5,0,0,1-1.5-1.5V40.459a1.5,1.5,0,0,1,3,0V90.694a1.5,1.5,0,0,1-1.5,1.5" fill="#0a1a4a"/>
    <path id="Path_24" data-name="Path 24" d="M61.665,92.194a1.5,1.5,0,0,1-1.5-1.5V40.459a1.5,1.5,0,0,1,3,0V90.694a1.5,1.5,0,0,1-1.5,1.5" fill="#0a1a4a"/>
    <path id="Path_25" data-name="Path 25" d="M81.429,92.194a1.5,1.5,0,0,1-1.5-1.5V40.459a1.5,1.5,0,0,1,3,0V90.694a1.5,1.5,0,0,1-1.5,1.5" fill="#0a1a4a"/>
    <path id="Path_26" data-name="Path 26" d="M101.252,92.194a1.5,1.5,0,0,1-1.5-1.5V40.459a1.5,1.5,0,1,1,3,0V90.694a1.5,1.5,0,0,1-1.5,1.5" fill="#0a1a4a"/>
    <path id="Path_27" data-name="Path 27" d="M111.8,82.9H11.882a1.5,1.5,0,0,1,0-3H111.8a1.5,1.5,0,0,1,0,3" fill="#0a1a4a"/>
    <path id="Path_28" data-name="Path 28" d="M63.165,82.881H39.51V64.319H63.165Zm-20.655-3H60.165V67.318H42.51Z" fill="#4da685"/>
  </g>
</svg>
