<svg xmlns="http://www.w3.org/2000/svg" xmlns:xlink="http://www.w3.org/1999/xlink" width="105.616" height="107.282" viewBox="0 0 105.616 107.282">
  <defs>
    <clipPath id="clip-path">
      <rect id="Rectangle_14" data-name="Rectangle 14" width="105.616" height="107.283" fill="none"/>
    </clipPath>
  </defs>
  <g id="Group_76" data-name="Group 76" transform="translate(0 0)">
    <g id="Group_75" data-name="Group 75" transform="translate(0 0)">
      <g id="Group_74" data-name="Group 74" clip-path="url(#clip-path)">
        <path id="Path_33" data-name="Path 33" d="M16.322,107.283h-.034a4.269,4.269,0,0,1-4.265-4.27V62.985l-7.783-.053a4.272,4.272,0,0,1-3.175-7.1L49.188,1.441a4.27,4.27,0,0,1,6.393,0l48.961,55.232a4.271,4.271,0,0,1-3.2,7.1H93.594v39.044a4.276,4.276,0,0,1-4.271,4.271H64.69a4.28,4.28,0,0,1-4.271-4.249l-.167-23.959H45.224V102.82a4.285,4.285,0,0,1-4.23,4.271Zm46.716-4.46a1.654,1.654,0,0,0,1.651,1.645H89.322a1.653,1.653,0,0,0,1.651-1.651V61.152h10.372a1.65,1.65,0,0,0,1.235-2.746L53.62,3.175a1.65,1.65,0,0,0-2.468,0L3.03,57.57a1.651,1.651,0,0,0,1.227,2.741l10.386.07v42.631a1.648,1.648,0,0,0,1.645,1.65h.029l24.654-.191A1.656,1.656,0,0,0,42.6,102.82V76.259H62.855l.184,26.54" transform="translate(0 0)" fill="#0a1a4a"/>
      </g>
    </g>
    <text id="_" data-name="£" transform="translate(40.49 60.595)" fill="#4da685" font-size="37" font-family="Poppins-Medium, Poppins" font-weight="500"><tspan x="0" y="0">£</tspan></text>
  </g>
</svg>
