<svg xmlns="http://www.w3.org/2000/svg" width="45.44" height="45.391" viewBox="0 0 45.44 45.391">
  <path id="Path_7522" data-name="Path 7522" d="M36.478,44.39h0a3.932,3.932,0,0,1-1.358-.241A58.761,58.761,0,0,1,23.679,38.47a58.811,58.811,0,0,1-9.839-7.918,58.811,58.811,0,0,1-7.918-9.839A58.759,58.759,0,0,1,.243,9.273,3.982,3.982,0,0,1,1.168,5.1L5.361.906A3.072,3.072,0,0,1,7.548,0h0A3.072,3.072,0,0,1,9.735.905l7.078,7.078a3.092,3.092,0,0,1,0,4.373l-3.566,3.566a2.14,2.14,0,0,0-.315,2.631A41.266,41.266,0,0,0,25.838,31.442a2.08,2.08,0,0,0,1.119.325,2.168,2.168,0,0,0,1.522-.632l3.556-3.556a3.093,3.093,0,0,1,4.373,0l7.078,7.078a3.092,3.092,0,0,1,0,4.374l-4.2,4.193a3.982,3.982,0,0,1-2.813,1.166ZM7.548,1.137a1.942,1.942,0,0,0-1.383.573l-4.193,4.2a2.841,2.841,0,0,0-.662,2.976,57.448,57.448,0,0,0,34.2,34.2,2.8,2.8,0,0,0,.966.172,2.863,2.863,0,0,0,2.009-.833l4.2-4.193a1.955,1.955,0,0,0,0-2.765L35.6,28.383a1.955,1.955,0,0,0-2.765,0l-3.556,3.556a3.313,3.313,0,0,1-2.326.965,3.216,3.216,0,0,1-1.73-.5,43.675,43.675,0,0,1-7.385-5.9,41.915,41.915,0,0,1-5.873-7.339,3.235,3.235,0,0,1-.469-2.1,3.312,3.312,0,0,1,.942-1.937l3.567-3.566a1.955,1.955,0,0,0,0-2.765L8.931,1.71A1.942,1.942,0,0,0,7.548,1.137Z" transform="translate(0.547 0.501)" fill="#0a1a4a" stroke="#0a1a4a" stroke-linecap="round" stroke-width="1"/>
</svg>
