<svg xmlns="http://www.w3.org/2000/svg" width="52.407" height="43.558" viewBox="0 0 52.407 43.558">
  <path id="Union_34" data-name="Union 34" d="M2.515,42.556A2.513,2.513,0,0,1,.259,38.935L17,1.451A2.512,2.512,0,0,1,19.08.008a2.487,2.487,0,0,1,2.253,1.064l.1.16,11.44,22.193L37.9,15.473a2.513,2.513,0,0,1,4.47.454L51.2,39.148a2.514,2.514,0,0,1-2.349,3.408ZM2.883,39.8H48.5L39.962,17.35l-5,7.912a2.512,2.512,0,0,1-2.069,1.164H32.84a2.5,2.5,0,0,1-2.057-1.072l-.1-.158L25.515,15.163l-3.606,3.655a2.873,2.873,0,0,1-2.007,1.32c-.045,0-.091,0-.136,0a1.789,1.789,0,0,1-1.354-.614l-4.422-4.6ZM19.817,17.02l4.371-4.43L19.283,3.075,15.2,12.218Z" transform="translate(0.525 0.502)" fill="#0a1a4a" stroke="rgba(0,0,0,0)" stroke-miterlimit="10" stroke-width="1"/>
</svg>
