<svg xmlns="http://www.w3.org/2000/svg" xmlns:xlink="http://www.w3.org/1999/xlink" width="142.755" height="84.112" viewBox="0 0 142.755 84.112">
  <defs>
    <clipPath id="clip-path">
      <rect id="Rectangle_13" data-name="Rectangle 13" width="142.755" height="84.112" transform="translate(0 0)" fill="none"/>
    </clipPath>
  </defs>
  <g id="Group_73" data-name="Group 73" transform="translate(0 0)">
    <g id="Group_72" data-name="Group 72" clip-path="url(#clip-path)">
      <path id="Path_29" data-name="Path 29" d="M71.377,84.106a42.049,42.049,0,1,1,42.049-42.049A42.1,42.1,0,0,1,71.377,84.106m0-81.1a39.049,39.049,0,1,0,39.049,39.049A39.093,39.093,0,0,0,71.377,3.008" fill="#0a1a4a"/>
      <path id="Path_30" data-name="Path 30" d="M70.854,84.112c-5.065,0-41.236-1.454-70.561-41.165a1.5,1.5,0,0,1,0-1.781C31.737-1.415,71.052-.015,71.451.009a1.5,1.5,0,0,1,1.424,1.57,1.518,1.518,0,0,1-1.569,1.427C70.929,2.994,33.7,1.739,3.371,42.056,33.7,82.373,70.923,81.118,71.306,81.107a1.517,1.517,0,0,1,1.569,1.427A1.5,1.5,0,0,1,71.451,84.1c-.027,0-.231.009-.6.009" fill="#0a1a4a"/>
      <path id="Path_31" data-name="Path 31" d="M71.9,84.112c-.367,0-.57-.008-.6-.009a1.5,1.5,0,0,1,.145-3c.381.024,37.609,1.267,67.935-39.051C109.058,1.739,71.831,2.995,71.449,3.006a1.5,1.5,0,0,1-.145-3c.4-.014,39.713-1.425,71.158,41.157a1.5,1.5,0,0,1,0,1.781C113.139,82.655,76.97,84.112,71.9,84.112" fill="#0a1a4a"/>
      <path id="Path_32" data-name="Path 32" d="M73.377,69.763a27.706,27.706,0,1,1,27.706-27.706A27.738,27.738,0,0,1,73.377,69.763m0-52.412A24.706,24.706,0,1,0,98.083,42.057,24.734,24.734,0,0,0,73.377,17.351" fill="#4da685"/>
    </g>
  </g>
</svg>
