<svg xmlns="http://www.w3.org/2000/svg" width="48.148" height="48.148" viewBox="0 0 48.148 48.148">
  <path id="Union_33" data-name="Union 33" d="M0,23.573A23.574,23.574,0,1,1,23.574,47.148,23.6,23.6,0,0,1,0,23.573Zm2.682,0A20.892,20.892,0,1,0,23.574,2.683,20.916,20.916,0,0,0,2.682,23.573Zm12.4,12.438a1.826,1.826,0,0,1-.731-1.8l1.252-7.3-5.3-5.169a1.837,1.837,0,0,1,1.02-3.134l7.326-1.065,3.277-6.64a1.838,1.838,0,0,1,3.3,0l3.276,6.64,7.327,1.065a1.837,1.837,0,0,1,1.019,3.134l-5.3,5.169,1.252,7.3a1.838,1.838,0,0,1-2.668,1.938l-6.552-3.445L17.02,36.151a1.826,1.826,0,0,1-1.934-.14Zm9.345-5.964,5.338,2.806-1.02-5.945a1.844,1.844,0,0,1,.529-1.628L33.6,21.07l-5.97-.867A1.834,1.834,0,0,1,26.244,19.2l-2.669-5.408L20.9,19.2A1.834,1.834,0,0,1,19.516,20.2l-5.966.867,4.321,4.21a1.846,1.846,0,0,1,.529,1.627l-1.021,5.946,5.341-2.806a1.835,1.835,0,0,1,1.712,0Zm4.281-12.068h0Zm-.687-.5h0Zm-8.9,0h0Z" transform="translate(0.5 0.5)" fill="#0a1a4a" stroke="rgba(0,0,0,0)" stroke-miterlimit="10" stroke-width="1"/>
</svg>
