<svg xmlns="http://www.w3.org/2000/svg" width="154.295" height="206" viewBox="0 0 154.295 206">
  <g id="arrow" transform="matrix(-0.875, -0.485, 0.485, -0.875, 95.71, 173.433)">
    <path id="Path_7447" data-name="Path 7447" d="M-5241.169-2816.37l-18.761-5.475,4.127-18.309a2.413,2.413,0,0,1,2.886-1.826,2.414,2.414,0,0,1,1.823,2.886l-2.528,11.224,65.512-36.314,5.031-18.907a2.417,2.417,0,0,1,2.954-1.713,2.413,2.413,0,0,1,1.713,2.954l-4.729,17.775,17.775,4.729a2.412,2.412,0,0,1,1.713,2.954,2.415,2.415,0,0,1-2.331,1.8,2.435,2.435,0,0,1-.623-.083l-19.384-5.156-64.451,35.727,10.624,3.1a2.413,2.413,0,0,1,1.643,2.995,2.418,2.418,0,0,1-2.318,1.738A2.479,2.479,0,0,1-5241.169-2816.37Zm90.54-47.39-22.443-5.97,5.97-22.442a2.415,2.415,0,0,1,2.955-1.713,2.414,2.414,0,0,1,1.713,2.954l-4.729,17.775,17.775,4.729a2.414,2.414,0,0,1,1.713,2.954,2.416,2.416,0,0,1-2.333,1.8A2.426,2.426,0,0,1-5150.629-2863.76Zm15.978-9.081-22.444-5.97,5.972-22.442a2.412,2.412,0,0,1,2.954-1.713,2.416,2.416,0,0,1,1.713,2.954l-4.729,17.775,17.775,4.729a2.415,2.415,0,0,1,1.713,2.954,2.42,2.42,0,0,1-2.333,1.8A2.414,2.414,0,0,1-5134.651-2872.841Z" transform="translate(5229.696 2882.572)" fill="#0a1a4a"/>
    <text id="GO" transform="matrix(-0.875, 0.485, -0.485, -0.875, 109.694, 36.876)" fill="none" stroke="#4da685" stroke-width="4" font-size="80" font-family="Poppins-SemiBold, Poppins" font-weight="600" letter-spacing="0.04em"><tspan x="0" y="0">GO</tspan></text>
  </g>
</svg>
