<svg id="Group_195" data-name="Group 195" xmlns="http://www.w3.org/2000/svg" xmlns:xlink="http://www.w3.org/1999/xlink" width="123.517" height="107.283" viewBox="0 0 123.517 107.283">
  <defs>
    <clipPath id="clip-path">
      <rect id="Rectangle_17" data-name="Rectangle 17" width="123.517" height="107.283" fill="none"/>
    </clipPath>
  </defs>
  <g id="Group_91" data-name="Group 91" clip-path="url(#clip-path)">
    <path id="Path_55" data-name="Path 55" d="M100.78,67.979H98.108V41.641a1.57,1.57,0,0,1,1.568-1.568h5.71L72.708,3.209,40.615,39.485l5.739.039a1.573,1.573,0,0,1,1.558,1.568V64.668H45.241V42.187l-7.071-.047a1.569,1.569,0,0,1-1.165-2.607L71.533.5a1.619,1.619,0,0,1,2.352,0l35.127,39.628a1.568,1.568,0,0,1-1.173,2.608H100.78Zm6.233-26.072,0,0ZM71.883,2.276l0,.005Zm1.654,0,0,0,0,0" transform="translate(-4.008 0)" fill="#0a1a4a"/>
    <path id="Path_56" data-name="Path 56" d="M83.259,78.526l-.13-18.683H69.364V78.007H66.692V58.738a1.571,1.571,0,0,1,1.569-1.567H84.224a1.575,1.575,0,0,1,1.569,1.553l.137,19.783Z" transform="translate(-7.3 -6.258)" fill="#0a1a4a"/>
    <path id="Path_57" data-name="Path 57" d="M65.9,94.658H58.973V91.987H65.9A31.566,31.566,0,0,0,83.68,86.522l5.059-3.433a.539.539,0,0,0,.2-.7A7.4,7.4,0,0,0,86.483,80.1a7.244,7.244,0,0,0-6.82-.013,23.189,23.189,0,0,1-18.871.727l-.15-.081a56.186,56.186,0,0,0-8.489-4.4,34.98,34.98,0,0,0-33.707,4.133L16.9,78.287a37.636,37.636,0,0,1,36.271-4.428,58.76,58.76,0,0,1,8.811,4.559,20.9,20.9,0,0,0,16.513-.731,9.891,9.891,0,0,1,9.337.107,10.023,10.023,0,0,1,3.337,3.112A3.2,3.2,0,0,1,90.24,85.3l-5.059,3.434A34.231,34.231,0,0,1,65.9,94.658" transform="translate(-1.85 -7.781)" fill="#4da685"/>
    <path id="Path_58" data-name="Path 58" d="M17.99,104.7l-.509-2.623c.159-.03,16.129-3.051,43.364-1.5a38.4,38.4,0,0,0,20.123-4.43L122.6,74.175a.281.281,0,0,0,.15-.2.316.316,0,0,0-.065-.266c-1.476-1.892-4.454-3.826-10.273-2.291a15.236,15.236,0,0,0-2.065.743L89.4,81.1l-1.047-2.458L109.3,69.707a17.813,17.813,0,0,1,2.432-.868c7.608-2.009,11.449,1.164,13.061,3.231a2.989,2.989,0,0,1,.57,2.471,2.956,2.956,0,0,1-1.516,2L82.215,98.5a41.241,41.241,0,0,1-21.522,4.736c-26.861-1.533-42.547,1.428-42.7,1.458" transform="translate(-1.914 -7.465)" fill="#4da685"/>
    <path id="Path_59" data-name="Path 59" d="M16.737,115.258H0v-2.672H14.065V75.525H0V72.853H16.737Z" transform="translate(0 -7.975)" fill="#0a1a4a"/>
  </g>
</svg>
