<svg xmlns="http://www.w3.org/2000/svg" width="49.396" height="45.101" viewBox="0 0 49.396 45.101">
  <path id="Union_35" data-name="Union 35" d="M22.82,43.463C19.379,40.727,7.87,31.349,4.277,25.619,1.545,21.263-4.855,11.062,6.514,2.631c8.134-6.031,14.95-.221,17.7,2.834,2.763-2.879,9.73-8.249,18.944-1.81,5.359,3.748,6.588,9.587,3.553,16.889a27.68,27.68,0,0,1-6.763,9.618C35.7,34.129,28.19,41.124,25.522,43.415a2.12,2.12,0,0,1-2.7.048ZM8.168,4.862C-.01,10.927,2.6,17.713,6.63,24.143,9.937,29.416,21.4,38.764,24.124,40.95c2.92-2.554,9.945-9.1,13.924-12.816a24.934,24.934,0,0,0,6.1-8.654c2.509-6.038,1.641-10.6-2.58-13.545-8.875-6.206-15.035.917-16.18,2.407a1.511,1.511,0,0,1-2.413-.023c-.959-1.289-4.458-5.5-9.2-5.5A9.365,9.365,0,0,0,8.168,4.862Z" transform="translate(0.502 0.675)" fill="#0a1a4a" stroke="rgba(0,0,0,0)" stroke-miterlimit="10" stroke-width="1"/>
</svg>
