<svg id="Group_208" data-name="Group 208" xmlns="http://www.w3.org/2000/svg" xmlns:xlink="http://www.w3.org/1999/xlink" width="87.882" height="116.023" viewBox="0 0 87.882 116.023">
  <defs>
    <clipPath id="clip-path">
      <rect id="Rectangle_57" data-name="Rectangle 57" width="87.882" height="116.023" fill="none"/>
    </clipPath>
  </defs>
  <path id="Path_7571" data-name="Path 7571" d="M27.541-4.491V.1H4.689L3.7-2.961a16.488,16.488,0,0,0,3.06-4.417,13.3,13.3,0,0,0,.987-5.454A9.357,9.357,0,0,0,7.5-14.906H2.073v-3.9h4.2a19,19,0,0,1-1.036-6.022,11.037,11.037,0,0,1,1.431-5.725,9.685,9.685,0,0,1,3.949-3.726,12.455,12.455,0,0,1,5.824-1.308q5.281,0,8,2.961a11.115,11.115,0,0,1,2.813,7.552H22.112a6.123,6.123,0,0,0-1.382-4.22,5.46,5.46,0,0,0-4.294-1.555,5.929,5.929,0,0,0-4.269,1.53,6.347,6.347,0,0,0-1.6,4.788,12.705,12.705,0,0,0,.3,2.764A30.149,30.149,0,0,0,11.7-18.8h9.575v3.9h-8.44a10.022,10.022,0,0,1,.247,2.122A11.677,11.677,0,0,1,9.773-4.491Z" transform="translate(27.882 62.984)" fill="#4da685"/>
  <g id="Group_207" data-name="Group 207">
    <g id="Group_206" data-name="Group 206" clip-path="url(#clip-path)">
      <path id="Path_4230" data-name="Path 4230" d="M27.736,102.692a1.791,1.791,0,0,1,2.008-1.543h0a1.437,1.437,0,0,1,1.072.506l12.621,12.681a1.927,1.927,0,0,1-.047-.422V77.345a1.88,1.88,0,0,1,1.693-1.892h.548a1.883,1.883,0,0,1,1.742,1.892v36.57a1.888,1.888,0,0,1-.048.424l12.687-12.746a2.4,2.4,0,0,1,1.073-.507,1.793,1.793,0,0,1,1.451,3.035l0,0L47.149,119.511l-.042.04a2.513,2.513,0,0,1-3.553-.04L28.23,104.186a1.79,1.79,0,0,1-.506-1.251,1.889,1.889,0,0,1,.012-.243" transform="translate(-1.559 -4.244)" fill="#0a1a4a"/>
      <path id="Path_4231" data-name="Path 4231" d="M32.366,84.462q-.81-.234-1.607-.5a42.054,42.054,0,1,1,25.947.208q-.556.176-1.119.336" transform="translate(-0.112 -0.113)" fill="none" stroke="#0a1a4a" stroke-linecap="round" stroke-miterlimit="10" stroke-width="4"/>
    </g>
  </g>
</svg>
