<svg xmlns="http://www.w3.org/2000/svg" width="25.689" height="25.659" viewBox="0 0 25.689 25.659">
  <path id="Path_64" data-name="Path 64" d="M12.848,0a1.633,1.633,0,0,1,1.491.947L17.412,7.5l6.873,1.027a1.646,1.646,0,0,1,.936,2.777l-5.03,5.154,1.193,7.286a1.645,1.645,0,0,1-2.421,1.708l-6.119-3.369-6.12,3.369A1.645,1.645,0,0,1,4.3,23.744L5.5,16.458.468,11.3A1.646,1.646,0,0,1,1.4,8.526L8.276,7.5,11.35.948A1.632,1.632,0,0,1,12.848,0M22.43,10.7l-5.786-.864A1.645,1.645,0,0,1,15.4,8.9L12.848,3.47,10.3,8.9a1.644,1.644,0,0,1-1.246.928l-5.788.864,4.245,4.351a1.652,1.652,0,0,1,.446,1.416l-1,6.1,5.1-2.805a1.65,1.65,0,0,1,1.586,0l5.1,2.806-1-6.1a1.649,1.649,0,0,1,.448-1.417Z" transform="translate(0 0)" fill="#0a1a4a"/>
</svg>
