<svg xmlns="http://www.w3.org/2000/svg" width="52.751" height="47.317" viewBox="0 0 52.751 47.317">
  <path id="Union_32" data-name="Union 32" d="M-1742.61-6047.939c-2.577-1.469-11.221-6.918-14.264-15.273a2.05,2.05,0,0,1,.169-1.769,2.035,2.035,0,0,1,1.479-.974h0c3.655-.487,6.435-2.237,9.5-10.605.036-.1.074-.193.117-.288-1.681-1.241-1.577-3.021-1.344-5.2a1.968,1.968,0,0,1,1.6-1.73l21.51-4.17v0a2.069,2.069,0,0,1,.251-.14c1.307-.618,3.5-.458,7.154-4.291a5.237,5.237,0,0,1,3.81-1.626c2.279.019,4.6,1.467,6.91,4.3a1.9,1.9,0,0,1,.291,1.894c-.748,1.885-1.459,6.224-9.507,14.683l-25.333,24.866a1.967,1.967,0,0,1-1.386.569A1.956,1.956,0,0,1-1742.61-6047.939Zm.923-2.1,25.146-24.681c7.454-7.838,8.083-11.657,8.927-13.711a12.02,12.02,0,0,0-2.739-2.521c-.946,4.35-5.141,9.838-12.323,17.39a226.464,226.464,0,0,1-22.894,20.927A39.26,39.26,0,0,0-1741.688-6050.039Zm-5.7-4.065c1.531-1.3,3.229-2.757,5.028-4.318-3.4-1.643-7.68-1.348-9.958-1.018A29.575,29.575,0,0,0-1747.393-6054.1Zm6.866-5.922c11.738-10.287,26.618-24.338,28-31.687l-.073,0a2.911,2.911,0,0,0-2.14.866l0,0c-3.85,4.049-6.2,4.026-7.75,4.769-.573,3.019-4.792,5.35-9.531,7.045l.209,2.772a1.14,1.14,0,0,1-.312.875,1.124,1.124,0,0,1-.735.351,1.138,1.138,0,0,1-1.218-1.053l-.166-2.205c-1.49.463-2.984.866-4.389,1.21l.193,2.741a1.143,1.143,0,0,1-.312.871,1.123,1.123,0,0,1-.739.349,1.138,1.138,0,0,1-1.214-1.059l-.168-2.383c-.974.214-1.867.394-2.638.54-4.065,11.312-7.6,11.749-11.133,12.289a18.318,18.318,0,0,0,1.012,2.188,26.307,26.307,0,0,1,4.778-.447A16.562,16.562,0,0,1-1740.527-6060.026Zm-4.182-21.557c-.12,1.982-.374,2.627,1.091,3.257.857-.167,1.72-.348,2.582-.542l-.222-3.148a1.137,1.137,0,0,1,.007-.236Zm5.717-.595.2,2.774c1.506-.383,2.98-.8,4.375-1.249l-.217-2.881-4.5.871A1.14,1.14,0,0,1-1738.992-6082.178Zm6.606-1.672.183,2.432c3.226-1.194,5.781-2.543,6.9-3.923l-7.095,1.374C-1732.393-6083.929-1732.388-6083.89-1732.385-6083.85Z" transform="translate(1757.512 6094.5)" fill="#0a1a4a" stroke="rgba(0,0,0,0)" stroke-miterlimit="10" stroke-width="1"/>
</svg>
