<svg aria-hidden="true" width="64" height="64" viewBox="0 0 64 64"><path d="M26.8 1L52.7 12.3 52.7 28.9C51.5 28.7 50.4 28.6 49.2 28.6 37.8 28.6 28.6 37.8 28.6 49.2 28.6 53.6 30 57.7 32.3 61.1 30.6 61.9 28.7 62.6 26.8 63 12 59.5 1 44.8 1 29.2L1 29.2 1 12.3 26.8 1ZM49.2 35.4C56.8 35.4 63 41.6 63 49.2 63 56.8 56.8 63 49.2 63 41.6 63 35.4 56.8 35.4 49.2 35.4 41.6 41.6 35.4 49.2 35.4ZM49.2 50.9C46.7 50.9 41.7 52.2 41.5 54.7 43.2 57.1 46 58.7 49.2 58.7 52.4 58.7 55.2 57.1 56.9 54.7 56.8 52.2 51.7 50.9 49.2 50.9ZM49.2 40.2C47.1 40.2 45.4 42 45.4 44.1 45.4 46.2 47.1 47.9 49.2 47.9 51.3 47.9 53.1 46.2 53.1 44.1 53.1 42 51.4 40.2 49.2 40.2Z" fill="#848CA4"/></svg>