<svg aria-hidden="true" width="64" height="64" viewBox="0 0 64 64"><path d="M48 1C52.9 1 56.8 4.9 56.8 9.8L56.8 9.8 56.8 35.1 63 35.1 63 53.9C63 57.3 60.2 60.1 56.8 60.1 56.8 61.8 55.4 63.2 53.7 63.2L53.7 63.2 10.3 63.2C8.6 63.2 7.2 61.8 7.2 60.1 3.8 60.1 1 57.3 1 53.9L1 53.9 1 35.3 10.5 35.3 10.5 33C10.5 29.1 13.6 26 17.4 26 18.5 26 19.5 26.2 20.5 26.7 21.3 27 22 27.5 22.6 28.2L22.6 28.2 26.9 33C27.6 33.8 28.5 34.5 29.4 35.2L29.4 35.2 50.8 35.2 50.8 9.9C50.8 8.4 49.6 7.3 48.2 7.3 47.5 7.3 46.9 7.5 46.4 8L46.4 8 42.5 11.9C42.6 12.4 42.7 12.9 42.7 13.5 42.7 14.7 42.3 15.8 41.7 16.8L41.7 16.8 33.1 8.2C34 7.6 35.2 7.2 36.4 7.2 37 7.2 37.5 7.2 38 7.4L38 7.4 41.8 3.6C43.4 1.9 45.7 1 48 1ZM16.5 10.3C19.9 10.3 22.7 13.1 22.7 16.5 22.7 19.9 19.9 22.7 16.5 22.7 13.1 22.7 10.3 19.9 10.3 16.5 10.3 13.1 13.1 10.3 16.5 10.3Z"/></svg>