<svg aria-hidden="true" width="64" height="64" viewBox="0 0 64 64"><path d="M54.9 35c0.1-1 0.2-2 0.2-3 0-1-0.1-2-0.2-3l6.5-5.1c0.6-0.5 0.8-1.3 0.4-2l-6.2-10.7c-0.4-0.7-1.2-0.9-1.9-0.7l-7.7 3.1c-1.6-1.2-3.3-2.3-5.2-3.1l-1.2-8.2C39.6 1.6 38.9 1 38.2 1H25.8c-0.8 0-1.4 0.6-1.5 1.3l-1.2 8.2c-1.9 0.8-3.6 1.8-5.2 3.1l-7.7-3.1c-0.7-0.3-1.5 0-1.9 0.7L2.2 21.9c-0.4 0.7-0.2 1.5 0.4 2L9.1 29c-0.1 1-0.2 2-0.2 3 0 1 0.1 2 0.2 3l-6.5 5.1c-0.6 0.5-0.8 1.3-0.4 2l6.2 10.7c0.4 0.7 1.2 0.9 1.9 0.7l7.7-3.1c1.6 1.2 3.3 2.3 5.2 3.1l1.2 8.2c0.1 0.7 0.8 1.3 1.5 1.3h12.3c0.8 0 1.4-0.6 1.5-1.3l1.2-8.2c1.9-0.8 3.6-1.8 5.2-3.1l7.7 3.1c0.7 0.3 1.5 0 1.9-0.7l6.2-10.7c0.4-0.7 0.2-1.5-0.4-2L54.9 35zM32 42.8c-6 0-10.8-4.9-10.8-10.8S26 21.1 32 21.1 42.8 26 42.8 32 38 42.8 32 42.8z"/></svg>
