<svg aria-hidden="true" width="64" height="64" viewBox="0 0 64 64"><path d="M22.7 31.2c-2.1 0-3.9 1.7-3.9 3.9s1.7 3.9 3.9 3.9 3.9-1.7 3.9-3.9S24.8 31.2 22.7 31.2zM41.3 31.2c-2.1 0-3.9 1.7-3.9 3.9s1.7 3.9 3.9 3.9 3.9-1.7 3.9-3.9S43.4 31.2 41.3 31.2zM32 1C14.9 1 1 14.9 1 32s13.9 31 31 31 31-13.9 31-31S49.1 1 32 1zM32 56.8C18.3 56.8 7.2 45.7 7.2 32c0-0.9 0.1-1.8 0.2-2.7 7.3-3.2 13.1-9.2 16.2-16.6 5.6 7.9 14.8 13.1 25.3 13.1 2.4 0 4.7-0.3 7-0.8 0.7 2.2 1 4.6 1 7C56.8 45.7 45.7 56.8 32 56.8z"/></svg>
