<svg aria-hidden="true" width="64" height="64" viewBox="0 0 64 64" class="icon">
    <path d="M38.7 23v24c0 6-4.9 10.9-10.9 10.9S16.9 53 16.9 47V12.9c0-3.8 3.1-6.8 6.8-6.8s6.8 3.1 6.8 6.8v28.6c0 1.5-1.2 2.7-2.7 2.7s-2.7-1.2-2.7-2.7V15.7H21v25.9c0 3.8 3.1 6.8 6.8 6.8s6.8-3.1 6.8-6.8V12.9c0-6-4.9-10.9-10.9-10.9S12.8 6.9 12.8 12.9V47c0 8.3 6.7 15 15 15s15-6.7 15-15V23H38.7z"/>
    <path d="M62 12.7H39.8c-0.7 0-1.2 0.7-1.2 1.3v0.4c0 0.6 0.5 1.3 1.2 1.3H62c0.7 0 1.2-0.7 1.2-1.3v-0.4C63.2 13.4 62.7 12.7 62 12.7z"/>
    <path d="M52.4 25.4V3.2c0-0.7-0.7-1.2-1.3-1.2h-0.4c-0.6 0-1.3 0.5-1.3 1.2v22.2c0 0.7 0.7 1.2 1.3 1.2h0.4C51.7 26.5 52.4 26 52.4 25.4z"/>
</svg>