<svg aria-hidden="true" width="64" height="64" viewBox="0 0 64 64"><path d="M32 0C14.3 0 0 14.3 0 32 0 49.7 14.3 64 32 64 49.7 64 64 49.7 64 32 64 14.3 49.7 0 32 0ZM43.6 20.3C47 20.3 49.7 23 49.7 26.5 49.7 29.9 47 32.6 43.6 32.6 40.1 32.6 37.4 29.9 37.4 26.5 37.3 23 40.1 20.3 43.6 20.3ZM24.4 15.2C28.5 15.2 31.9 18.6 31.9 22.8 31.9 26.9 28.5 30.3 24.4 30.3 20.2 30.3 16.8 26.9 16.8 22.8 16.8 18.6 20.2 15.2 24.4 15.2ZM24.4 44.4L24.4 56.4C16.7 54 10.6 48.1 7.9 40.6 11.3 37 19.6 35.2 24.4 35.2 26 35.2 28.2 35.4 30.4 35.9 25.2 38.7 24.4 42.3 24.4 44.4ZM32 57.6C31.1 57.6 30.3 57.6 29.5 57.5L29.5 44.4C29.5 39.9 38.9 37.6 43.6 37.6 47 37.6 52.9 38.9 55.8 41.3 52.1 50.8 42.8 57.6 32 57.6Z"/></svg>
        