<?xml version="1.0" encoding="utf-8"?>
<!-- Generator: Adobe Illustrator 18.1.1, SVG Export Plug-In . SVG Version: 6.00 Build 0)  -->
<svg version="1.1" id="Layer_1" xmlns="http://www.w3.org/2000/svg" xmlns:xlink="http://www.w3.org/1999/xlink" x="0px" y="0px"
	 viewBox="0 0 1242 2208" enable-background="new 0 0 1242 2208" xml:space="preserve">
	<rect y="274" display="none" fill="transparent" width="1242" height="1934"/>
	<radialGradient id="SVGID_11_" cx="806.1429" cy="1721.434" r="423.2635" gradientUnits="userSpaceOnUse">
		<stop  offset="0" style="stop-color:#005798"/>
		<stop  offset="9.966620e-003" style="stop-color:#005798"/>
		<stop  offset="3.105070e-002" style="stop-color:#005595"/>
		<stop  offset="0.2773" style="stop-color:#053B76"/>
		<stop  offset="0.4859" style="stop-color:#072C63"/>
		<stop  offset="0.6308" style="stop-color:#08265C"/>
		<stop  offset="1" style="stop-color:#08265C"/>
	</radialGradient>
	<path opacity="6.000000e-002" fill="url(#SVGID_11_)" d="M1041.4,2025.5c-1.4-78.6-9.3-182.3-72.2-259c16.4-8.4,58.9-31.3,70.5-49
		c0,0-11.7-31.5-48.4-37.4c0,0-39.3-5.8-88.7-0.2c8.6-3.4,46.8-19.3,69.1-40.8c0,0,16.8-13.7,42-48c0,0,16.7-20.8,42.5-33.9
		c3.3-1.7,16.4-8.3,27.4-16.2c6.8-5,8.7-6.6,19.1-14.6c0,0,69.2-55.8,48.2-112.1c0,0,0-1.1-3.6-1.8c0,0,1.4,34.4-26,61.5
		c0,0-4.6,5.5-12.1,11.2c-17.4,13.2-43.2,28-42-21.6c0,0,0.2-10.5,7.2-37.1c4.7-17.6,6.9-33.9,9.4-52.6c0,0,5.5-33.4-1.5-80.3
		c-7-47-29.1-58.2-29.1-58.2s-2.1-1.1-3.6-0.6c0,0,20.7,40.2,13.4,93.5c0,0-3.3,39.4-27.3,27.2c0,0-12.4-4.6-20.1-28.7
		c0,0-6.5-17.3-7.1-42c0,0-0.9-1.3-3.2-2.2c0,0-5.3,11.9-3.9,36.8c0,0,1.9,29.1,20.1,74.2c0,0,9.4,28.7,12,46c0,0,6.2,29.7-19.7,72.6
		c0,0-12.1,19.1-17.1,25.2c-20,24.5-64,68.8-95.5-1.7c-3.8-8.5-8.4-22.5-10.9-34.2c0,0-5.1-15.8-10.5-80.7c0,0,0.4-1.1-2.4-2.1
		c0,0-9.4,21.7-12.3,61.9c0,0-2.6,29.7,7.4,64.5c0,0,8.8,31.7,12.4,51.5c3.5,19.6,1.2,52.5-45.8,61.1l1.4,0.1
		c-39.2,6.2-48.6,6.7-58.1,7.2c0,0-22.1,2.3-36-8.2c-3.9-2.9-7.2-6.6-9.5-11.2c-3-5.7-2.1-3.7-4.5-11.3c-3-9.3-2.5-23.4-2.5-23.4
		c0.9-31.9,3.3-71.4,3.3-71.4c1.7-58.7-10.2-78.2-15.8-83.3c-0.7-0.6-0.8-0.4-1.5-0.3c-1,0.1-0.9,2.1-0.9,2.1c1.1,10,4,33.3-2,69.1
		c-6,35.8-16.8,53.3-16.8,53.3c-4.8,10.3-17.8,28.9-33.2,25.9c-13-2.5-29.1-18.8-29.1-18.8c-43.8-44-46.8-68.4-46.8-68.4l-1.2-5.6
		l-0.7-4.6c-7.1-39.5,1.2-63.6,1.2-63.6c7.9-30,15-52.5,15-52.5c8-23.4,0.1-43.1,0.1-43.1c-0.2-0.2-0.4-0.7-0.6-0.8
		c-3-0.6-3.9,4-3.9,4c-1.9,29.2-18.1,47.4-18.1,47.4c-11.7,12-20.2,5.8-23.2-1.1c-2.2-4.8-2.4-10.1-2.4-10.1
		c-1.1-33.2,9.5-83.5,11.8-93c1.7-7.2,3-8.4,3.5-9.7c0.6-1.5-5.5-1.7-8.7,0.5c-0.3,0.2-3.9,3.3-4.3,4.6c0,0-39,83.8-7.3,202.7
		c0,0,21.2,60-42.9,29.7c0,0-19.7-11.1-39.2-37.8c0,0-2.5-4.5-3.7-4.5c-2.8,0-4.8,4-4.8,6c0,2,6.9,27.1,34,53.9c0,0,6.9,6.2,9.1,8
		c3.7,3.1,14.5,10.8,30.5,19.5c9.6,5.3,25.9,11.8,38.7,18.7c0,0,19.4,5.6,57.2,43.1l25.2,22.7c9.7,8.5,37.8,28.1,69,45.5
		c0,0-74.3,48.9-193.8,80.7c-1.9,0.5-4.3,2-5.5,2.8c0,0-9.8,11.2,3.9,32c4.3,6.6,28.8,44.5,28.8,44.5s10.6,30.1,80.5,31.6
		c0,0,59.1,0,78.6,4.8c0,0,76.9,6,96.6,66.9c0,0,25.2,70.8-4.1,110.7c-8,10.9-18.1,21-29.5,25.6c-0.2,0.1,2-4.2,6.7-16.2
		c3.2-8.2,4.2-11.6,6-20.8c0.9-4.5,1.5-10.8,2.1-15.5c2-16.2-1.8-31.5-1.9-30.4c-0.7,4.2-4.2,11.9-8.1,16.3c-5.3,5.8-8.5,7-13.9,9.5
		c-9.9,4.6-17.6,7.5-25.6,10.7c-14.8,5.9-20.3,8.8-28.7,12.6c-9.9,4.5-19.8,10.1-21,10.8c-21.3,11.9-12.8,7.4-20.8,12
		c-18.4,12.3-16.9,11.3-21.2,14.6c-32.7,23.2-67,58-92.1,105.3l518.1,0.3C1041.9,2132.9,1041.5,2047.9,1041.4,2025.5"/>
</svg>
